<?xml version="1.0" encoding="utf-8"?>
<!-- Generator: Adobe Illustrator 19.2.0, SVG Export Plug-In . SVG Version: 6.00 Build 0)  -->
<svg version="1.1" id="Layer_1" xmlns="http://www.w3.org/2000/svg" xmlns:xlink="http://www.w3.org/1999/xlink" x="0px" y="0px"
	 viewBox="0 0 200 200" style="enable-background:new 0 0 200 200;" xml:space="preserve">
<style type="text/css">
	.st0{fill:#E22028;}
	.st1{fill-rule:evenodd;clip-rule:evenodd;fill:#1E1E1D;}
</style>
<polygon class="st0" points="0,200 0,0 200,0 "/>
<path class="st1" d="M60.3,31.5C44.1,31.5,31,44.6,31,60.8c0,12.9,8.4,23.9,20,27.8c1.5,0.3,2-0.6,2-1.4c0-0.7,0-2.5,0-5
	c-8.2,1.8-9.9-3.9-9.9-3.9c-1.3-3.4-3.3-4.3-3.3-4.3c-2.7-1.8,0.2-1.8,0.2-1.8c2.9,0.2,4.5,3,4.5,3c2.6,4.5,6.9,3.2,8.5,2.4
	c0.3-1.9,1-3.2,1.9-3.9c-6.5-0.7-13.3-3.3-13.3-14.5c0-3.2,1.1-5.8,3-7.9c-0.3-0.7-1.3-3.7,0.3-7.8c0,0,2.5-0.8,8.1,3
	c2.3-0.6,4.8-1,7.3-1c2.5,0,5,0.3,7.3,1c5.6-3.8,8-3,8-3c1.6,4,0.6,7,0.3,7.8c1.9,2,3,4.7,3,7.9c0,11.3-6.9,13.7-13.4,14.5
	c1.1,0.9,2,2.7,2,5.4c0,3.9,0,7.1,0,8c0,0.8,0.5,1.7,2,1.4c11.6-3.9,20-14.9,20-27.8C89.6,44.6,76.5,31.5,60.3,31.5z"/>
</svg>
