<?xml version="1.0" encoding="utf-8"?>
<!-- Generator: Adobe Illustrator 19.2.0, SVG Export Plug-In . SVG Version: 6.00 Build 0)  -->
<svg version="1.1" id="Layer_1" xmlns="http://www.w3.org/2000/svg" xmlns:xlink="http://www.w3.org/1999/xlink" x="0px" y="0px"
	 viewBox="0 0 363 71.1" style="enable-background:new 0 0 363 71.1;" xml:space="preserve">
<style type="text/css">
	.st0{fill:#E22028;}
</style>
<g>
	<path class="st0" d="M58.8,62.7C52.6,66.3,45,68,35.9,68c-10.1,0-18.1-2.8-23.9-8.4c-5.8-5.6-8.7-13.3-8.7-23.1
		c0-9.9,3.2-17.9,9.6-24.1c6.4-6.2,14.8-9.3,25.4-9.3c6.7,0,12.5,0.9,17.6,2.8v13.3c-4.8-2.8-10.8-4.2-17.8-4.2
		c-5.9,0-10.7,1.9-14.4,5.7c-3.7,3.8-5.5,8.9-5.5,15.3c0,6.5,1.7,11.5,5,15c3.3,3.5,7.8,5.3,13.4,5.3c3.4,0,6.1-0.5,8.1-1.4V42.5H32
		V31.1h26.7V62.7z"/>
	<path class="st0" d="M108.7,66.9H71V4.1h36.2v11.5H85.2v14h20.6v11.5H85.2v14.4h23.5V66.9z"/>
	<path class="st0" d="M175.3,66.9H161l-25.9-39.5c-1.5-2.3-2.6-4-3.2-5.2h-0.2c0.2,2.2,0.4,5.6,0.4,10.2v34.5h-13.4V4.1H134
		L159,42.4c1.1,1.7,2.2,3.4,3.2,5.1h0.2c-0.2-1.5-0.4-4.3-0.4-8.6V4.1h13.4V66.9z"/>
	<path class="st0" d="M226,15.6h-22.2v15.4h20.4v11.5h-20.4v24.4h-14.2V4.1H226V15.6z"/>
	<path class="st0" d="M273.8,66.9h-37.4V4.1h14.2v51.4h23.3V66.9z"/>
	<path class="st0" d="M301.6,4.1v11h-5.3V56h5.3v11H277V56h5.3V15.1H277v-11H301.6z"/>
	<path class="st0" d="M362,66.9h-16.8l-10.8-20.5c-0.4-0.8-0.8-2.2-1.3-4.2h-0.2c-0.2,1-0.7,2.4-1.4,4.4l-10.9,20.3h-16.9l20-31.4
		L305.5,4.1h17.2l9,18.8c0.7,1.5,1.3,3.3,1.9,5.3h0.2c0.4-1.2,1-3.1,2-5.5l10-18.7h15.8l-18.8,31.2L362,66.9z"/>
</g>
</svg>
