<?xml version="1.0" encoding="utf-8"?>
<!-- Generator: Adobe Illustrator 19.2.0, SVG Export Plug-In . SVG Version: 6.00 Build 0)  -->
<svg version="1.1" id="Layer_1" xmlns="http://www.w3.org/2000/svg" xmlns:xlink="http://www.w3.org/1999/xlink" x="0px" y="0px"
	 viewBox="0 0 358.7 62.8" style="enable-background:new 0 0 358.7 62.8;" xml:space="preserve">
<style type="text/css">
	.st0{fill:#E22028;}
</style>
<g>
	<path class="st0" d="M55.5,58.6c-6.1,3.5-13.8,5.3-22.9,5.3c-10.1,0-18.1-2.8-23.9-8.4C2.9,49.9,0,42.2,0,32.4
		c0-9.9,3.2-17.9,9.6-24.1C15.9,2.1,24.4-1.1,35-1.1c6.7,0,12.5,0.9,17.6,2.8V15c-4.8-2.8-10.8-4.2-17.8-4.2
		c-5.9,0-10.7,1.9-14.4,5.7c-3.7,3.8-5.5,8.9-5.5,15.3c0,6.5,1.7,11.5,5,15c3.3,3.5,7.8,5.3,13.4,5.3c3.4,0,6.1-0.5,8.1-1.4V38.3
		H28.8V27h26.7V58.6z"/>
	<path class="st0" d="M105.4,62.8H67.7V0H104v11.5H81.9v14h20.6V37H81.9v14.4h23.5V62.8z"/>
	<path class="st0" d="M172,62.8h-14.3l-25.9-39.5c-1.5-2.3-2.6-4-3.2-5.2h-0.2c0.2,2.2,0.4,5.6,0.4,10.2v34.5h-13.4V0h15.3
		l24.9,38.3c1.1,1.7,2.2,3.4,3.2,5.1h0.2c-0.2-1.5-0.4-4.3-0.4-8.6V0H172V62.8z"/>
	<path class="st0" d="M222.7,11.5h-22.2V27h20.4v11.5h-20.4v24.4h-14.2V0h36.3V11.5z"/>
	<path class="st0" d="M270.5,62.8h-37.4V0h14.2v51.4h23.3V62.8z"/>
	<path class="st0" d="M298.4,0v11h-5.3v40.9h5.3v11h-24.7v-11h5.3V11h-5.3V0H298.4z"/>
	<path class="st0" d="M358.7,62.8h-16.8l-10.8-20.5c-0.4-0.8-0.8-2.2-1.3-4.2h-0.2c-0.2,1-0.7,2.4-1.4,4.4l-10.9,20.3h-16.9l20-31.4
		L302.2,0h17.2l9,18.8c0.7,1.5,1.3,3.3,1.9,5.3h0.2c0.4-1.2,1-3.1,2-5.5l10-18.7h15.8l-18.8,31.2L358.7,62.8z"/>
</g>
</svg>
